<svg xmlns="http://www.w3.org/2000/svg" viewBox="0 0 120 120" width="120" height="120" fill="none">
  <defs>
    <linearGradient id="doraBody" x1="0" y1="0" x2="0" y2="1">
      <stop offset="0" stop-color="#12A65B"/>
      <stop offset="1" stop-color="#0A8449"/>
    </linearGradient>
  </defs>

  <!-- Bracinhos abertos, acolhedores -->
  <g fill="url(#doraBody)">
    <ellipse cx="19" cy="69" rx="9" ry="7" transform="rotate(-22 19 69)"/>
    <ellipse cx="101" cy="69" rx="9" ry="7" transform="rotate(22 101 69)"/>
  </g>

  <!-- Corpo: coracao roliço -->
  <path d="M60,105 C60,105 17,76 17,45 C17,29 31,20 43,29 C51,34 60,47 60,47 C60,47 69,34 77,29 C89,20 103,29 103,45 C103,76 60,105 60,105 Z" fill="url(#doraBody)"/>

  <!-- Brilho suave no alto -->
  <path d="M44,30 C37,26 28,29 24,36 C31,32 39,32 44,37 Z" fill="#ffffff" fill-opacity="0.22"/>

  <!-- Bochechas -->
  <circle cx="37" cy="63" r="4.5" fill="#ffffff" fill-opacity="0.30"/>
  <circle cx="83" cy="63" r="4.5" fill="#ffffff" fill-opacity="0.30"/>

  <!-- Olhos -->
  <circle cx="48" cy="52" r="9" fill="#ffffff"/>
  <circle cx="72" cy="52" r="9" fill="#ffffff"/>
  <circle cx="49.5" cy="53" r="4.4" fill="#0B3D24"/>
  <circle cx="73.5" cy="53" r="4.4" fill="#0B3D24"/>
  <circle cx="51.2" cy="51.3" r="1.5" fill="#ffffff"/>
  <circle cx="75.2" cy="51.3" r="1.5" fill="#ffffff"/>

  <!-- Sorriso caloroso -->
  <path d="M49,63 Q60,74 71,63" stroke="#ffffff" stroke-width="3.6" stroke-linecap="round" fill="none"/>
</svg>
